<mxfile host="65bd71144e">
    <diagram id="nxFvPsxEzoptKj1op4rD" name="第 1 页">
        <mxGraphModel dx="889" dy="598" grid="1" gridSize="10" guides="1" tooltips="1" connect="0" arrows="1" fold="1" page="1" pageScale="1" pageWidth="827" pageHeight="1169" math="0" shadow="0">
            <root>
                <mxCell id="0"/>
                <mxCell id="1" parent="0"/>
                <mxCell id="67" value="" style="edgeStyle=none;curved=1;html=1;shadow=0;fontSize=10;endArrow=classic;endFill=1;exitX=1.025;exitY=0.487;exitDx=0;exitDy=0;exitPerimeter=0;fillColor=#1ba1e2;strokeColor=#006EAF;movable=0;resizable=0;rotatable=0;deletable=0;editable=0;connectable=0;" edge="1" parent="1" source="2">
                    <mxGeometry relative="1" as="geometry">
                        <mxPoint x="240" y="340" as="targetPoint"/>
                    </mxGeometry>
                </mxCell>
                <mxCell id="2" value="Harbor" style="rounded=0;whiteSpace=wrap;html=1;strokeColor=default;shadow=0;sketch=0;gradientColor=none;movable=0;resizable=0;rotatable=0;deletable=0;editable=0;connectable=0;" vertex="1" parent="1">
                    <mxGeometry x="120" y="260" width="80" height="20" as="geometry"/>
                </mxCell>
                <mxCell id="68" value="" style="edgeStyle=none;curved=1;html=1;shadow=0;fontSize=10;endArrow=classic;endFill=1;exitX=0.992;exitY=0.519;exitDx=0;exitDy=0;exitPerimeter=0;fillColor=#1ba1e2;strokeColor=#006EAF;movable=0;resizable=0;rotatable=0;deletable=0;editable=0;connectable=0;" edge="1" parent="1" source="8">
                    <mxGeometry relative="1" as="geometry">
                        <mxPoint x="240" y="338" as="targetPoint"/>
                    </mxGeometry>
                </mxCell>
                <mxCell id="8" value="Gitlab" style="rounded=0;whiteSpace=wrap;html=1;movable=0;resizable=0;rotatable=0;deletable=0;editable=0;connectable=0;" vertex="1" parent="1">
                    <mxGeometry x="120" y="300" width="80" height="20" as="geometry"/>
                </mxCell>
                <mxCell id="69" value="" style="edgeStyle=none;curved=1;html=1;shadow=0;fontSize=10;endArrow=classic;endFill=1;exitX=0.992;exitY=0.519;exitDx=0;exitDy=0;exitPerimeter=0;fillColor=#1ba1e2;strokeColor=#006EAF;movable=0;resizable=0;rotatable=0;deletable=0;editable=0;connectable=0;" edge="1" parent="1" source="9">
                    <mxGeometry relative="1" as="geometry">
                        <mxPoint x="240" y="338" as="targetPoint"/>
                    </mxGeometry>
                </mxCell>
                <mxCell id="9" value="ArgoCD" style="rounded=0;whiteSpace=wrap;html=1;movable=0;resizable=0;rotatable=0;deletable=0;editable=0;connectable=0;" vertex="1" parent="1">
                    <mxGeometry x="120" y="340" width="80" height="20" as="geometry"/>
                </mxCell>
                <mxCell id="70" value="" style="edgeStyle=none;curved=1;html=1;shadow=0;fontSize=10;endArrow=classic;endFill=1;exitX=1.008;exitY=0.39;exitDx=0;exitDy=0;exitPerimeter=0;fillColor=#1ba1e2;strokeColor=#006EAF;movable=0;resizable=0;rotatable=0;deletable=0;editable=0;connectable=0;" edge="1" parent="1" source="10">
                    <mxGeometry relative="1" as="geometry">
                        <mxPoint x="240" y="338" as="targetPoint"/>
                    </mxGeometry>
                </mxCell>
                <mxCell id="10" value="Others..." style="rounded=0;whiteSpace=wrap;html=1;movable=0;resizable=0;rotatable=0;deletable=0;editable=0;connectable=0;" vertex="1" parent="1">
                    <mxGeometry x="120" y="380" width="80" height="20" as="geometry"/>
                </mxCell>
                <mxCell id="11" value="" style="rounded=1;whiteSpace=wrap;html=1;shadow=0;sketch=0;strokeColor=#314354;movable=0;resizable=0;rotatable=0;deletable=0;editable=0;connectable=0;fillColor=#647687;fontColor=#ffffff;" vertex="1" parent="1">
                    <mxGeometry x="240" y="107.5" width="960" height="460" as="geometry"/>
                </mxCell>
                <mxCell id="14" value="&lt;div&gt;&lt;br&gt;&lt;/div&gt;" style="rounded=0;whiteSpace=wrap;html=1;shadow=0;sketch=0;strokeColor=default;gradientColor=none;align=left;dashed=1;movable=0;resizable=0;rotatable=0;deletable=0;editable=0;connectable=0;" vertex="1" parent="1">
                    <mxGeometry x="280" y="222.5" width="520" height="230" as="geometry"/>
                </mxCell>
                <mxCell id="26" value="" style="endArrow=classic;html=1;movable=0;resizable=0;rotatable=0;deletable=0;editable=0;connectable=0;" edge="1" parent="1" target="14">
                    <mxGeometry width="50" height="50" relative="1" as="geometry">
                        <mxPoint x="280" y="340" as="sourcePoint"/>
                        <mxPoint x="330" y="290" as="targetPoint"/>
                    </mxGeometry>
                </mxCell>
                <mxCell id="32" value="" style="edgeStyle=none;html=1;movable=0;resizable=0;rotatable=0;deletable=0;editable=0;connectable=0;" edge="1" parent="1" source="17" target="18">
                    <mxGeometry relative="1" as="geometry"/>
                </mxCell>
                <mxCell id="17" value="validate" style="rounded=0;whiteSpace=wrap;html=1;shadow=0;sketch=0;strokeColor=default;gradientColor=none;movable=0;resizable=0;rotatable=0;deletable=0;editable=0;connectable=0;" vertex="1" parent="1">
                    <mxGeometry x="320" y="315" width="80" height="45" as="geometry"/>
                </mxCell>
                <mxCell id="33" value="" style="edgeStyle=none;html=1;movable=0;resizable=0;rotatable=0;deletable=0;editable=0;connectable=0;" edge="1" parent="1" source="18" target="19">
                    <mxGeometry relative="1" as="geometry"/>
                </mxCell>
                <mxCell id="18" value="filter" style="rounded=0;whiteSpace=wrap;html=1;shadow=0;sketch=0;strokeColor=default;gradientColor=none;movable=0;resizable=0;rotatable=0;deletable=0;editable=0;connectable=0;" vertex="1" parent="1">
                    <mxGeometry x="440" y="315" width="84" height="45" as="geometry"/>
                </mxCell>
                <mxCell id="34" value="" style="edgeStyle=none;html=1;movable=0;resizable=0;rotatable=0;deletable=0;editable=0;connectable=0;" edge="1" parent="1" source="19" target="20">
                    <mxGeometry relative="1" as="geometry"/>
                </mxCell>
                <mxCell id="19" value="render" style="rounded=0;whiteSpace=wrap;html=1;shadow=0;sketch=0;strokeColor=default;gradientColor=none;movable=0;resizable=0;rotatable=0;deletable=0;editable=0;connectable=0;" vertex="1" parent="1">
                    <mxGeometry x="560" y="315" width="80" height="45" as="geometry"/>
                </mxCell>
                <mxCell id="35" style="edgeStyle=none;html=1;movable=0;resizable=0;rotatable=0;deletable=0;editable=0;connectable=0;" edge="1" parent="1" source="20" target="14">
                    <mxGeometry relative="1" as="geometry"/>
                </mxCell>
                <mxCell id="20" value="package job" style="rounded=0;whiteSpace=wrap;html=1;shadow=0;sketch=0;strokeColor=default;gradientColor=none;movable=0;resizable=0;rotatable=0;deletable=0;editable=0;connectable=0;" vertex="1" parent="1">
                    <mxGeometry x="670" y="315" width="84" height="45" as="geometry"/>
                </mxCell>
                <mxCell id="37" value="" style="endArrow=classic;html=1;shadow=0;entryX=0.011;entryY=0.514;entryDx=0;entryDy=0;entryPerimeter=0;movable=0;resizable=0;rotatable=0;deletable=0;editable=0;connectable=0;" edge="1" parent="1" target="17">
                    <mxGeometry width="50" height="50" relative="1" as="geometry">
                        <mxPoint x="240" y="338" as="sourcePoint"/>
                        <mxPoint x="330" y="330" as="targetPoint"/>
                    </mxGeometry>
                </mxCell>
                <mxCell id="38" value="Notify Center" style="text;html=1;strokeColor=none;fillColor=none;align=center;verticalAlign=middle;whiteSpace=wrap;rounded=0;shadow=0;sketch=0;fontSize=25;movable=0;resizable=0;rotatable=0;deletable=0;editable=0;connectable=0;" vertex="1" parent="1">
                    <mxGeometry x="280" y="130" width="200" height="30" as="geometry"/>
                </mxCell>
                <mxCell id="39" value="&lt;font style=&quot;font-size: 15px&quot;&gt;receiver&lt;/font&gt;" style="text;html=1;strokeColor=none;fillColor=none;align=center;verticalAlign=middle;whiteSpace=wrap;rounded=0;shadow=0;sketch=0;fontSize=25;movable=0;resizable=0;rotatable=0;deletable=0;editable=0;connectable=0;" vertex="1" parent="1">
                    <mxGeometry x="270" y="220" width="100" height="30" as="geometry"/>
                </mxCell>
                <mxCell id="46" value="" style="rounded=0;whiteSpace=wrap;html=1;shadow=0;sketch=0;fontSize=15;strokeColor=default;gradientColor=none;movable=0;resizable=0;rotatable=0;deletable=0;editable=0;connectable=0;" vertex="1" parent="1">
                    <mxGeometry x="860" y="200" width="130" height="270" as="geometry"/>
                </mxCell>
                <mxCell id="47" value="job queue" style="text;html=1;strokeColor=none;fillColor=none;align=center;verticalAlign=middle;whiteSpace=wrap;rounded=0;shadow=0;sketch=0;fontSize=15;movable=0;resizable=0;rotatable=0;deletable=0;editable=0;connectable=0;" vertex="1" parent="1">
                    <mxGeometry x="860" y="200" width="80" height="30" as="geometry"/>
                </mxCell>
                <mxCell id="50" value="job1" style="rounded=1;whiteSpace=wrap;html=1;shadow=0;sketch=0;fontSize=15;strokeColor=default;gradientColor=none;movable=0;resizable=0;rotatable=0;deletable=0;editable=0;connectable=0;" vertex="1" parent="1">
                    <mxGeometry x="880" y="250" width="90" height="40" as="geometry"/>
                </mxCell>
                <mxCell id="51" value="job2" style="rounded=1;whiteSpace=wrap;html=1;shadow=0;sketch=0;fontSize=15;strokeColor=default;gradientColor=none;movable=0;resizable=0;rotatable=0;deletable=0;editable=0;connectable=0;" vertex="1" parent="1">
                    <mxGeometry x="880" y="315" width="90" height="40" as="geometry"/>
                </mxCell>
                <mxCell id="52" value="...jobn" style="rounded=1;whiteSpace=wrap;html=1;shadow=0;sketch=0;fontSize=15;strokeColor=default;gradientColor=none;movable=0;resizable=0;rotatable=0;deletable=0;editable=0;connectable=0;" vertex="1" parent="1">
                    <mxGeometry x="880" y="380" width="90" height="40" as="geometry"/>
                </mxCell>
                <mxCell id="54" value="" style="endArrow=classic;html=1;shadow=0;fontSize=15;curved=1;movable=0;resizable=0;rotatable=0;deletable=0;editable=0;connectable=0;" edge="1" parent="1">
                    <mxGeometry width="50" height="50" relative="1" as="geometry">
                        <mxPoint x="800" y="340" as="sourcePoint"/>
                        <mxPoint x="920" y="470" as="targetPoint"/>
                        <Array as="points">
                            <mxPoint x="800" y="610"/>
                        </Array>
                    </mxGeometry>
                </mxCell>
                <mxCell id="55" value="push queue&lt;br style=&quot;font-size: 10px;&quot;&gt;" style="edgeLabel;html=1;align=center;verticalAlign=middle;resizable=0;points=[];fontSize=10;movable=0;rotatable=0;deletable=0;editable=0;connectable=0;" vertex="1" connectable="0" parent="54">
                    <mxGeometry x="0.6172" y="25" relative="1" as="geometry">
                        <mxPoint y="1" as="offset"/>
                    </mxGeometry>
                </mxCell>
                <mxCell id="56" value="" style="rounded=0;whiteSpace=wrap;html=1;shadow=0;sketch=0;fontSize=15;movable=0;resizable=0;rotatable=0;deletable=0;editable=0;connectable=0;" vertex="1" parent="1">
                    <mxGeometry x="1040" y="200" width="130" height="270" as="geometry"/>
                </mxCell>
                <mxCell id="57" value="sender" style="text;html=1;strokeColor=none;fillColor=none;align=center;verticalAlign=middle;whiteSpace=wrap;rounded=0;shadow=0;sketch=0;fontSize=15;movable=0;resizable=0;rotatable=0;deletable=0;editable=0;connectable=0;" vertex="1" parent="1">
                    <mxGeometry x="1030" y="200" width="80" height="30" as="geometry"/>
                </mxCell>
                <mxCell id="59" value="dingtalk" style="rounded=0;whiteSpace=wrap;html=1;shadow=0;sketch=0;fontSize=10;strokeColor=default;gradientColor=none;movable=0;resizable=0;rotatable=0;deletable=0;editable=0;connectable=0;" vertex="1" parent="1">
                    <mxGeometry x="1050" y="250" width="110" height="40" as="geometry"/>
                </mxCell>
                <mxCell id="62" value="wechat" style="rounded=0;whiteSpace=wrap;html=1;shadow=0;sketch=0;fontSize=10;strokeColor=default;gradientColor=none;movable=0;resizable=0;rotatable=0;deletable=0;editable=0;connectable=0;" vertex="1" parent="1">
                    <mxGeometry x="1050" y="300" width="110" height="40" as="geometry"/>
                </mxCell>
                <mxCell id="63" value="feishu" style="rounded=0;whiteSpace=wrap;html=1;shadow=0;sketch=0;fontSize=10;strokeColor=default;gradientColor=none;movable=0;resizable=0;rotatable=0;deletable=0;editable=0;connectable=0;" vertex="1" parent="1">
                    <mxGeometry x="1050" y="350" width="110" height="40" as="geometry"/>
                </mxCell>
                <mxCell id="64" value="..." style="rounded=0;whiteSpace=wrap;html=1;shadow=0;sketch=0;fontSize=10;strokeColor=default;gradientColor=none;movable=0;resizable=0;rotatable=0;deletable=0;editable=0;connectable=0;" vertex="1" parent="1">
                    <mxGeometry x="1050" y="400" width="110" height="40" as="geometry"/>
                </mxCell>
                <mxCell id="65" value="" style="endArrow=classic;html=1;shadow=0;fontSize=10;curved=1;exitX=0.713;exitY=0.002;exitDx=0;exitDy=0;exitPerimeter=0;entryX=0.999;entryY=0.024;entryDx=0;entryDy=0;entryPerimeter=0;movable=0;resizable=0;rotatable=0;deletable=0;editable=0;connectable=0;" edge="1" parent="1" source="47" target="57">
                    <mxGeometry width="50" height="50" relative="1" as="geometry">
                        <mxPoint x="920" y="220" as="sourcePoint"/>
                        <mxPoint x="970" y="170" as="targetPoint"/>
                        <Array as="points">
                            <mxPoint x="1010" y="120"/>
                        </Array>
                    </mxGeometry>
                </mxCell>
                <mxCell id="66" value="pop queue" style="edgeLabel;html=1;align=center;verticalAlign=middle;resizable=0;points=[];fontSize=10;movable=0;rotatable=0;deletable=0;editable=0;connectable=0;" vertex="1" connectable="0" parent="65">
                    <mxGeometry x="0.1859" y="-29" relative="1" as="geometry">
                        <mxPoint as="offset"/>
                    </mxGeometry>
                </mxCell>
                <mxCell id="72" value="message template" style="rounded=0;whiteSpace=wrap;html=1;shadow=0;sketch=0;fontSize=10;strokeColor=default;gradientColor=none;movable=0;resizable=0;rotatable=0;deletable=0;editable=0;connectable=0;" vertex="1" parent="1">
                    <mxGeometry x="524" y="140" width="220" height="40" as="geometry"/>
                </mxCell>
                <mxCell id="73" value="" style="endArrow=classic;html=1;shadow=0;fontSize=10;curved=1;exitX=0.258;exitY=1.034;exitDx=0;exitDy=0;exitPerimeter=0;entryX=0.267;entryY=-0.059;entryDx=0;entryDy=0;entryPerimeter=0;fillColor=#008a00;strokeColor=#005700;strokeWidth=3;movable=0;resizable=0;rotatable=0;deletable=0;editable=0;connectable=0;" edge="1" parent="1" source="72" target="19">
                    <mxGeometry width="50" height="50" relative="1" as="geometry">
                        <mxPoint x="780" y="380" as="sourcePoint"/>
                        <mxPoint x="830" y="330" as="targetPoint"/>
                    </mxGeometry>
                </mxCell>
            </root>
        </mxGraphModel>
    </diagram>
</mxfile>